<svg width="1440" height="238" viewBox="0 0 1440 238" fill="none" xmlns="http://www.w3.org/2000/svg">
<path d="M414 36C374 10.4 315.167 39.3333 285.5 50C260.5 61.1667 173.5 50 161 80.5C147.003 114.652 296.5 93 385.5 102C474.5 111 524.5 73.5 578 69.5C620.8 66.3 606.5 55.1667 594 50C550.667 56 454 61.6 414 36Z" fill="#FCE7C9"/>
<path d="M527 195.97C494.004 195.97 482.5 176.389 459.862 176.389C439.5 176.389 401.939 176.389 395.474 207.016C388.236 241.309 465.551 219.567 511.58 228.604C557.608 237.642 574.331 240.017 602 236C624.135 232.787 647.965 218.688 641.5 213.5C619.089 219.525 574 195.97 527 195.97Z" fill="#FCE7C9"/>
<path d="M926.742 162.39C966.742 187.99 1059.83 139.557 1089.5 128.89C1114.5 117.723 1226.26 126.5 1240.5 115.5C1269.71 92.9393 1089.5 100 1000.5 91C911.5 82 816.242 124.89 762.742 128.89C719.942 132.09 734.242 143.223 746.742 148.39C790.076 142.39 886.742 136.79 926.742 162.39Z" fill="#FCE7C9"/>
</svg>
