<svg width="942" height="189" viewBox="0 0 942 189" fill="none" xmlns="http://www.w3.org/2000/svg">
<rect x="1.5" y="3.5" width="185" height="185" rx="19.5" stroke="#3F1E1F"/>
<path d="M103.5 72.7379C103.5 78.1628 99.2136 82.5 94 82.5C88.7864 82.5 84.5 78.1628 84.5 72.7379C84.5 71.4699 85.0969 69.1232 86.1366 66.1133C87.1508 63.1769 88.5098 59.8167 89.8784 56.6281C91.2453 53.4435 92.6134 50.4494 93.6404 48.2503C93.7655 47.9822 93.8856 47.7261 94 47.4828C94.1144 47.7261 94.2345 47.9822 94.3596 48.2503C95.3866 50.4494 96.7547 53.4435 98.1216 56.6281C99.4902 59.8167 100.849 63.1769 101.863 66.1133C102.903 69.1232 103.5 71.4699 103.5 72.7379Z" stroke="#3F1E1F" stroke-width="3"/>
<path d="M139.5 107.641C139.5 114.779 133.868 120.5 127 120.5C120.132 120.5 114.5 114.779 114.5 107.641C114.5 105.945 115.285 102.89 116.606 99.0589C117.901 95.3014 119.635 91.0068 121.379 86.9372C123.121 82.8716 124.864 79.0501 126.172 76.2437C126.473 75.5983 126.751 75.0068 127 74.4786C127.249 75.0068 127.527 75.5983 127.828 76.2437C129.136 79.0501 130.879 82.8716 132.621 86.9372C134.365 91.0068 136.099 95.3014 137.394 99.0589C138.715 102.89 139.5 105.945 139.5 107.641Z" stroke="#3F1E1F" stroke-width="3"/>
<path d="M75.5 122.078C75.5 129.483 69.4632 135.5 62 135.5C54.5368 135.5 48.5 129.483 48.5 122.078C48.5 120.313 49.3418 117.135 50.7571 113.154C52.1455 109.248 54.0038 104.784 55.8721 100.554C57.7386 96.3289 59.6064 92.3572 61.0082 89.4405C61.3733 88.6808 61.7067 87.993 62 87.3913C62.2933 87.993 62.6267 88.6808 62.9918 89.4405C64.3936 92.3572 66.2614 96.3289 68.1279 100.554C69.9962 104.784 71.8545 109.248 73.2429 113.154C74.6582 117.135 75.5 120.313 75.5 122.078Z" stroke="#3F1E1F" stroke-width="3"/>
<line x1="35" y1="152.879" x2="150.879" y2="37" stroke="#3F1E1F" stroke-width="3" stroke-linecap="round" stroke-dasharray="6 6"/>
<rect x="253.5" y="3.5" width="184" height="185" rx="19.5" stroke="#3F1E1F"/>
<path fill-rule="evenodd" clip-rule="evenodd" d="M355.875 41.6398C348.408 42.7071 339.423 43.8877 331.697 43.701C329.217 43.641 326.869 44.8246 324.594 47.1133C324.006 47.7056 323.43 48.3642 322.867 49.0816C334.323 49.4252 352.441 50.8651 369.494 55.7482C377.387 58.0086 385.11 61.0225 391.854 65.0453C392.071 64.3013 392.291 63.5507 392.512 62.7941C393.519 59.3587 393.256 57.1936 392.562 55.7687C391.862 54.3334 390.589 53.3665 388.982 52.6117C387.859 52.0848 386.749 51.7291 385.64 51.3739C385.084 51.1958 384.529 51.0179 383.973 50.8186C383.214 50.5466 382.41 50.2147 381.772 49.7519C381.104 49.2668 380.46 48.5168 380.393 47.4243C380.357 46.8368 380.084 46.1525 379.505 45.3889C378.929 44.6295 378.108 43.8691 377.127 43.1546C375.155 41.7199 372.724 40.6082 370.87 40.1061C370.59 40.0305 370.018 39.9787 369.067 40.009C368.154 40.0382 367.015 40.137 365.675 40.2898C363.551 40.5321 361.005 40.8999 358.171 41.3093C357.425 41.4171 356.658 41.5278 355.875 41.6398ZM390.988 68.027C384.397 63.9853 376.69 60.9296 368.668 58.6323C350.916 53.5488 331.917 52.261 320.818 52.0305C319.953 53.4192 319.121 54.9388 318.322 56.5561C314.805 63.6738 312.081 72.344 309.902 79.282C309.799 79.6093 309.697 79.9328 309.597 80.252C325.147 102.533 352.866 111.164 380.766 101.724C381.966 98.7717 383.496 93.8713 385.375 87.47C386.318 84.2601 387.342 80.6947 388.45 76.8373L388.662 76.0978C389.401 73.5253 390.176 70.8282 390.988 68.027ZM317.35 51.9888C316.754 53.0312 316.182 54.1154 315.632 55.2273C312.007 62.5655 309.215 71.4538 307.049 78.3524C306.867 78.9326 306.689 79.4988 306.515 80.0488L306.297 80.7428L306.706 81.3443C323.119 105.452 352.852 114.621 382.383 104.34L383.006 104.124L383.268 103.518C384.589 100.456 386.253 95.1309 388.254 88.3151C389.198 85.0989 390.224 81.5283 391.33 77.6773L391.546 76.926C392.207 74.6218 392.898 72.2199 393.617 69.7339C395.304 70.8945 396.903 72.1288 398.398 73.441C406.16 80.2565 411.125 89.1786 411.125 100.97C411.125 108.768 408.728 114.78 404.597 119.326C400.442 123.899 394.429 127.101 387.029 129.056C372.198 132.974 352.179 131.777 331.785 127.039C313.316 122.748 297.519 112.331 288.388 99.9988C279.263 87.6762 276.917 73.6828 284.699 61.823C287.635 57.3492 291.688 54.9783 296.612 53.6786C301.601 52.3615 307.392 52.166 313.736 52.0211C314.7 51.9991 315.916 51.9849 317.35 51.9888ZM319.211 49.0032C316.922 48.9744 315.042 48.9905 313.668 49.0219C307.389 49.1653 301.237 49.3549 295.846 50.778C290.389 52.2184 285.626 54.9428 282.191 60.1772C273.5 73.4217 276.374 88.8147 285.977 101.784C295.574 114.744 312.014 125.525 331.106 129.961C351.718 134.75 372.288 136.053 387.795 131.957C395.564 129.905 402.158 126.471 406.817 121.344C411.5 116.19 414.125 109.437 414.125 100.97C414.125 88.201 408.697 78.4917 400.377 71.1866C398.547 69.5797 396.577 68.0892 394.495 66.7068C394.789 65.6959 395.088 64.6726 395.391 63.6379C396.529 59.7577 396.386 56.7683 395.259 54.4544C394.136 52.1508 392.17 50.7945 390.256 49.8961C388.96 49.2876 387.509 48.8207 386.315 48.4362C385.817 48.2761 385.364 48.1302 384.985 47.9944C384.267 47.7371 383.806 47.5209 383.534 47.3236C383.45 47.2629 383.406 47.2206 383.385 47.196C383.291 45.8466 382.688 44.6223 381.895 43.5764C381.09 42.5146 380.03 41.557 378.892 40.7289C376.624 39.0786 373.86 37.8079 371.654 37.2104C370.918 37.0111 369.967 36.9788 368.972 37.0106C367.939 37.0435 366.707 37.1527 365.335 37.3092C363.162 37.557 360.556 37.9336 357.715 38.344C356.975 38.4509 356.219 38.5602 355.45 38.67C347.959 39.7408 339.21 40.8816 331.769 40.7018C328.183 40.6151 325.086 42.3626 322.467 44.9986C321.314 46.158 320.231 47.5112 319.211 49.0032ZM383.366 47.1702C383.367 47.1702 383.371 47.1751 383.375 47.1847C383.368 47.175 383.366 47.1702 383.366 47.1702Z" fill="#3F1E1F"/>
<path d="M311 69C321.611 88.4556 354.632 102.228 385.5 92.5427" stroke="#3F1E1F" stroke-width="3"/>
<path d="M356 63L342.368 73.6853L358.438 80.1481L356 63ZM320.392 155.56L321.548 152.685L318.765 151.565L317.608 154.44L320.392 155.56ZM323.86 146.935L326.173 141.185L323.39 140.065L321.077 145.815L323.86 146.935ZM328.485 135.435L330.798 129.685L328.015 128.565L325.702 134.315L328.485 135.435ZM333.11 123.935L335.423 118.185L332.64 117.065L330.327 122.815L333.11 123.935ZM337.735 112.435L340.048 106.685L337.265 105.565L334.952 111.315L337.735 112.435ZM342.36 100.935L344.673 95.1847L341.89 94.0653L339.577 99.8153L342.36 100.935ZM346.985 89.4347L349.298 83.6847L346.515 82.5653L344.202 88.3153L346.985 89.4347ZM351.61 77.9347L353.923 72.1847L351.14 71.0653L348.827 76.8153L351.61 77.9347Z" fill="#3F1E1F"/>
<rect x="756.5" y="3.5" width="185" height="185" rx="19.5" stroke="#3F1E1F"/>
<path d="M789.261 111.381C791.624 93.9979 795.508 30.8197 815.377 47.9016C837.453 66.8818 774.53 103.918 789.261 129.881C791.893 134.521 796.778 136.546 801.259 137.092M883.888 137.092C887.252 120.241 867.222 89.7687 844.759 68.2726M883.888 137.092C878.874 113.104 854.889 102.098 828.259 101.024M883.888 137.092C870.757 138.796 815.534 137.553 801.259 137.092M810.238 45.06C817.698 47.2848 826.461 52.6674 835.297 59.881M806.759 118.881C799.759 121.381 796.259 118.381 795.259 113.381C794.259 108.381 799.394 103.507 802.259 102.974M835.297 59.881C831.773 75.4091 824.579 90.0335 813.759 101.388M835.297 59.881C838.124 62.1887 840.958 64.6839 843.759 67.3231C844.093 67.6376 844.426 67.9541 844.759 68.2726M802.259 102.974C807.111 102.072 814.083 107.147 816.453 112.087C818.461 116.275 818.259 127.283 810.957 132.881C807.549 135.493 805.456 136.863 801.259 137.092M802.259 102.974C810.837 101.363 819.685 100.679 828.259 101.024M844.759 68.2726C841.759 76.7416 834.259 95.1486 828.259 101.024" stroke="#3F1E1F" stroke-width="3"/>
<path d="M875 55.5L883.856 70.3855L892.319 55.2736L875 55.5ZM881.796 61.2643C883.477 62.3473 885.068 63.4385 886.571 64.5365L888.34 62.1138C886.788 60.9798 885.149 59.8556 883.42 58.7422L881.796 61.2643ZM891.129 68.1052C892.658 69.3929 894.075 70.6875 895.386 71.9868L897.498 69.8564C896.127 68.4972 894.65 67.1479 893.061 65.8102L891.129 68.1052ZM899.266 76.2118C900.534 77.7373 901.665 79.2662 902.668 80.7954L905.176 79.1502C904.109 77.5229 902.911 75.9032 901.573 74.2943L899.266 76.2118ZM905.476 85.7362C906.325 87.494 907.019 89.2496 907.57 90.9987L910.431 90.0973C909.836 88.208 909.089 86.3174 908.177 84.4307L905.476 85.7362ZM908.852 96.4997C909.141 98.3881 909.277 100.267 909.275 102.132L912.275 102.135C912.277 100.122 912.13 98.0899 911.817 96.0459L908.852 96.4997ZM908.856 107.781C908.583 109.656 908.18 111.511 907.665 113.341L910.552 114.155C911.101 112.208 911.531 110.225 911.825 108.214L908.856 107.781ZM905.798 118.738C905.436 119.621 905.051 120.495 904.643 121.361L907.357 122.639C907.786 121.729 908.192 120.807 908.574 119.875L905.798 118.738Z" fill="#3F1E1F"/>
<rect x="505.5" y="3.5" width="184" height="185" rx="19.5" stroke="#3F1E1F"/>
<path d="M590.525 60.6206L575.44 45.128C574.699 44.3668 573.253 45.1879 573.43 46.2356C575.934 61.0991 569.401 83.0479 568.394 104C567.655 119.367 574.94 133.209 572.84 149.848C572.702 150.942 574.281 151.621 574.917 150.72L590.525 128.625M590.525 60.6206V128.625M590.525 60.6206H601.127M590.525 128.625H601.127M601.127 60.6206H616.62C623.298 60.6206 629.26 65.0225 630.75 71.5319C634.589 88.2934 634.52 100.886 630.723 117.636C629.24 124.18 623.262 128.625 616.552 128.625H601.127M601.127 60.6206V128.625" stroke="#3F1E1F" stroke-width="3"/>
<path d="M574 44.9998C558.5 41.5 561.3 74.1843 563.394 98.9999C565.438 123.232 552 152 573.894 151" stroke="#3F1E1F" stroke-width="3"/>
</svg>
