<svg width="1440" height="1131" viewBox="0 0 1440 1131" fill="none" xmlns="http://www.w3.org/2000/svg">
<g clip-path="url(#clip0_70_3)">
<path d="M204.093 640.384C200.851 629.536 207.016 618.114 217.863 614.871V614.871C228.711 611.629 240.133 617.794 243.376 628.641L284.758 767.079C288.001 777.927 281.836 789.349 270.988 792.592V792.592C260.14 795.834 248.718 789.669 245.476 778.822L204.093 640.384Z" fill="#F1EEE9"/>
<path d="M418.618 629.464C419.287 618.162 428.991 609.542 440.294 610.212V610.212C451.596 610.881 460.215 620.585 459.546 631.887L451.387 769.685C450.718 780.987 441.014 789.607 429.712 788.937V788.937C418.41 788.268 409.79 778.564 410.459 767.262L418.618 629.464Z" fill="#F1EEE9"/>
<path d="M1267.5 606.471C1268.3 593.005 1279.86 582.734 1293.33 583.532V583.532C1306.79 584.329 1317.06 595.892 1316.27 609.359L1306.3 777.699C1305.5 791.165 1293.94 801.436 1280.47 800.639V800.639C1267 799.841 1256.73 788.278 1257.53 774.811L1267.5 606.471Z" fill="#F1EEE9"/>
<path fill-rule="evenodd" clip-rule="evenodd" d="M166.703 646.987C171.886 644.385 178.196 646.478 180.798 651.661C188.718 667.44 195.571 676.621 203.746 682.722C211.901 688.809 222.431 692.622 239.314 695.522C245.029 696.504 248.867 701.933 247.885 707.648C246.903 713.364 241.474 717.201 235.759 716.219C217.513 713.085 203.199 708.519 191.184 699.551C179.188 690.597 170.544 678.045 162.029 661.081C159.428 655.899 161.52 649.588 166.703 646.987Z" fill="#F1EEE9"/>
<path fill-rule="evenodd" clip-rule="evenodd" d="M390.227 585.939C395.988 585.271 401.2 589.398 401.868 595.158C403.905 612.696 407.199 623.669 412.789 632.201C418.366 640.714 426.952 647.902 441.821 656.41C446.855 659.29 448.6 665.705 445.72 670.739C442.84 675.772 436.425 677.517 431.392 674.637C415.323 665.443 403.439 656.251 395.223 643.709C387.019 631.188 383.198 616.435 381.009 597.58C380.34 591.82 384.467 586.608 390.227 585.939Z" fill="#F1EEE9"/>
<path fill-rule="evenodd" clip-rule="evenodd" d="M1234.44 647.968C1240.2 647.299 1245.41 651.426 1246.08 657.187C1248.52 678.209 1252.5 691.646 1259.41 702.194C1266.31 712.723 1276.86 721.48 1294.69 731.683C1299.72 734.563 1301.47 740.978 1298.59 746.012C1295.71 751.045 1289.29 752.79 1284.26 749.91C1265.23 739.021 1251.38 728.26 1241.84 713.702C1232.32 699.165 1227.82 681.948 1225.22 659.609C1224.55 653.849 1228.68 648.637 1234.44 647.968Z" fill="#F1EEE9"/>
<path fill-rule="evenodd" clip-rule="evenodd" d="M354.041 599.84C359.074 596.96 365.489 598.706 368.369 603.74C371.729 609.612 375.082 611.428 378.474 612.338C380.501 612.881 382.846 613.161 385.818 613.32C387.204 613.395 388.614 613.439 390.175 613.488C390.286 613.491 390.399 613.495 390.512 613.498C392.161 613.55 393.966 613.61 395.806 613.721C401.594 614.071 406.003 619.048 405.652 624.836C405.302 630.625 400.326 635.033 394.537 634.683C393.037 634.592 391.511 634.54 389.851 634.488C389.725 634.484 389.598 634.48 389.471 634.476C387.96 634.429 386.323 634.378 384.692 634.29C381.157 634.1 377.133 633.72 373.035 632.621C364.174 630.245 356.249 624.842 350.142 614.168C347.262 609.135 349.008 602.72 354.041 599.84Z" fill="#F1EEE9"/>
<path fill-rule="evenodd" clip-rule="evenodd" d="M1192.09 664.279C1197.13 661.399 1203.54 663.145 1206.42 668.178C1210.69 675.635 1215.12 678.143 1219.68 679.367C1222.3 680.068 1225.25 680.41 1228.85 680.603C1230.52 680.693 1232.23 680.746 1234.08 680.805C1234.21 680.809 1234.35 680.813 1234.49 680.817C1236.45 680.879 1238.58 680.949 1240.74 681.08C1246.52 681.43 1250.93 686.407 1250.58 692.195C1250.23 697.984 1245.26 702.392 1239.47 702.042C1237.65 701.931 1235.8 701.869 1233.82 701.807C1233.68 701.802 1233.53 701.798 1233.37 701.793C1231.57 701.736 1229.64 701.676 1227.72 701.573C1223.56 701.35 1218.93 700.906 1214.25 699.65C1204.21 696.96 1195.21 690.865 1188.19 678.607C1185.31 673.574 1187.06 667.159 1192.09 664.279Z" fill="#F1EEE9"/>
<path fill-rule="evenodd" clip-rule="evenodd" d="M281.785 659.534C276.597 656.944 270.291 659.05 267.701 664.239C262.818 674.018 258.794 679.142 254.267 682.399C249.725 685.668 243.548 687.869 232.678 689.485C226.942 690.337 222.984 695.679 223.836 701.415C224.689 707.151 230.03 711.109 235.766 710.257C247.933 708.448 257.996 705.587 266.533 699.445C275.084 693.292 280.978 684.658 286.489 673.619C289.08 668.431 286.974 662.125 281.785 659.534Z" fill="#F1EEE9"/>
<path fill-rule="evenodd" clip-rule="evenodd" d="M485.05 674.068C481.063 669.857 474.417 669.676 470.206 673.663C462.27 681.178 456.734 684.615 451.365 686.124C445.978 687.639 439.421 687.591 428.655 685.386C422.974 684.222 417.425 687.885 416.262 693.566C415.098 699.247 418.76 704.795 424.441 705.959C436.492 708.427 446.926 709.187 457.05 706.34C467.192 703.488 475.686 697.395 484.645 688.912C488.856 684.924 489.037 678.279 485.05 674.068Z" fill="#F1EEE9"/>
<path fill-rule="evenodd" clip-rule="evenodd" d="M1359.1 632.468C1353.21 626.252 1343.4 625.985 1337.19 631.87C1327.88 640.687 1321.7 644.403 1315.98 646.011C1310.24 647.626 1302.98 647.671 1290.33 645.081C1281.95 643.363 1273.76 648.769 1272.04 657.155C1270.32 665.541 1275.73 673.732 1284.11 675.45C1298.65 678.429 1311.64 679.435 1324.37 675.854C1337.14 672.265 1347.68 664.626 1358.5 654.38C1364.72 648.494 1364.98 638.684 1359.1 632.468Z" fill="#F1EEE9"/>
<path d="M3.8147e-05 717C135.5 717 700.289 801 870.5 801C1040.71 801 1326.11 717 1440 717V948L-66.2188 929C-66.2188 929 -135.5 717 3.8147e-05 717Z" fill="#F1EEE9"/>
<path d="M1440 790C1090.22 790 743 886 575 886C407 886 205.5 790 0.00012207 790V1119.5C260 1119.5 436.242 913.88 710.5 974.5C991 1036.5 1204 1119.5 1440 1119.5C1440 1119.5 1789.78 790 1440 790Z" fill="#E7DFD2"/>
<circle cx="720" cy="216" r="51" fill="#F1EEE9"/>
</g>
<defs>
<clipPath id="clip0_70_3">
<rect width="1440" height="1131" fill="white"/>
</clipPath>
</defs>
</svg>
