<svg width="29" height="29" viewBox="0 0 29 29" fill="none" xmlns="http://www.w3.org/2000/svg">
<path d="M14.2452 6.92236C12.3034 6.92236 10.4412 7.69372 9.0682 9.06673C7.69518 10.4397 6.92383 12.302 6.92383 14.2437C6.92383 16.1854 7.69518 18.0476 9.0682 19.4207C10.4412 20.7937 12.3034 21.565 14.2452 21.565C16.1869 21.565 18.0491 20.7937 19.4221 19.4207C20.7951 18.0476 21.5665 16.1854 21.5665 14.2437C21.5665 12.302 20.7951 10.4397 19.4221 9.06673C18.0491 7.69372 16.1869 6.92236 14.2452 6.92236V6.92236ZM14.2452 18.9984C12.9837 18.9984 11.7739 18.4973 10.8819 17.6053C9.98994 16.7134 9.48883 15.5036 9.48883 14.2421C9.48883 12.9807 9.98994 11.7709 10.8819 10.8789C11.7739 9.98689 12.9837 9.48578 14.2452 9.48578C15.5066 9.48578 16.7164 9.98689 17.6084 10.8789C18.5004 11.7709 19.0015 12.9807 19.0015 14.2421C19.0015 15.5036 18.5004 16.7134 17.6084 17.6053C16.7164 18.4973 15.5066 18.9984 14.2452 18.9984V18.9984Z" fill="#3F1E1F"/>
<path d="M21.8562 8.36002C22.7989 8.36002 23.5631 7.59584 23.5631 6.65318C23.5631 5.71052 22.7989 4.94635 21.8562 4.94635C20.9136 4.94635 20.1494 5.71052 20.1494 6.65318C20.1494 7.59584 20.9136 8.36002 21.8562 8.36002Z" fill="#3F1E1F"/>
<path d="M27.7574 4.91783C27.3909 3.97129 26.8307 3.1117 26.1129 2.39409C25.395 1.67649 24.5352 1.11668 23.5885 0.7505C22.4807 0.334648 21.3104 0.10979 20.1273 0.0854998C18.6026 0.0189998 18.1197 0 14.2532 0C10.3867 0 9.89108 -1.59256e-07 8.379 0.0854998C7.19687 0.108548 6.02736 0.333452 4.921 0.7505C3.97407 1.11625 3.11404 1.67591 2.39611 2.39357C1.67818 3.11123 1.11819 3.97104 0.752083 4.91783C0.336149 6.02555 0.111806 7.19599 0.0886667 8.379C0.0205833 9.90217 0 10.3851 0 14.2532C0 18.1197 -1.17968e-08 18.6121 0.0886667 20.1273C0.112417 21.3117 0.335666 22.4802 0.752083 23.5901C1.11922 24.5365 1.67975 25.396 2.39786 26.1136C3.11596 26.8311 3.97585 27.391 4.92258 27.7574C6.02685 28.19 7.19684 28.4309 8.38217 28.4699C9.90692 28.5364 10.3898 28.557 14.2563 28.557C18.1228 28.557 18.6184 28.557 20.1305 28.4699C21.3134 28.4459 22.4837 28.2215 23.5917 27.8065C24.5381 27.4395 25.3977 26.8792 26.1155 26.1614C26.8333 25.4436 27.3935 24.584 27.7606 23.6376C28.177 22.5293 28.4002 21.3608 28.424 20.1764C28.4921 18.6533 28.5127 18.1703 28.5127 14.3023C28.5127 10.4342 28.5127 9.94333 28.424 8.42808C28.4056 7.22835 28.1801 6.04081 27.7574 4.91783V4.91783ZM25.8289 20.0102C25.8187 20.9226 25.6522 21.8266 25.3365 22.6828C25.0987 23.2985 24.7347 23.8577 24.2679 24.3242C23.801 24.7908 23.2417 25.1545 22.6258 25.3919C21.7791 25.7061 20.8847 25.8727 19.9817 25.8843C18.4775 25.954 18.0532 25.9714 14.1962 25.9714C10.336 25.9714 9.94175 25.9714 8.40908 25.8843C7.50647 25.8733 6.61251 25.7067 5.7665 25.3919C5.1485 25.156 4.58692 24.7929 4.11808 24.3263C3.64923 23.8596 3.28357 23.2997 3.04475 22.6828C2.73354 21.8358 2.56708 20.9425 2.55233 20.0402C2.48425 18.5361 2.46842 18.1118 2.46842 14.2548C2.46842 10.3962 2.46842 10.0019 2.55233 8.46767C2.56257 7.5557 2.72912 6.65225 3.04475 5.79658C3.52767 4.54733 4.51725 3.56408 5.7665 3.08592C6.61293 2.77264 7.50662 2.60611 8.40908 2.5935C9.91483 2.52542 10.3376 2.50642 14.1962 2.50642C18.0548 2.50642 18.4506 2.50642 19.9817 2.5935C20.8848 2.60436 21.7793 2.77095 22.6258 3.08592C23.2416 3.32385 23.8009 3.6879 24.2677 4.15471C24.7345 4.62153 25.0986 5.18078 25.3365 5.79658C25.6477 6.64359 25.8142 7.53692 25.8289 8.43917C25.897 9.94492 25.9144 10.3677 25.9144 14.2262C25.9144 18.0833 25.9144 18.4981 25.8463 20.0118H25.8289V20.0102Z" fill="#3F1E1F"/>
</svg>
