<svg width="449" height="135" viewBox="0 0 449 135" fill="none" xmlns="http://www.w3.org/2000/svg">
<path d="M138.005 122.232C138.005 120.952 137.83 120.036 137.481 119.483C137.132 118.931 136.58 118.596 135.824 118.48C135.067 118.364 134.064 118.335 132.813 118.393L129.628 118.524V128.514C129.628 130.027 129.585 131.161 129.497 131.918L137.83 131.787C139.11 131.758 140.215 131.554 141.146 131.176C142.077 130.769 142.804 130.071 143.328 129.082C143.851 128.093 144.113 126.74 144.113 125.024H145.596L145.335 133.532H122.822V132.092C123.928 132.034 124.684 131.787 125.091 131.35C125.498 130.885 125.716 130.26 125.745 129.474C125.804 128.66 125.833 127.744 125.833 126.726V107.878C125.833 106.657 125.876 105.61 125.964 104.737C125.44 104.766 124.916 104.795 124.393 104.824C123.869 104.853 123.346 104.882 122.822 104.911V102.992H143.808L144.026 110.627H142.586C142.586 108.911 142.324 107.616 141.801 106.744C141.277 105.842 140.565 105.246 139.663 104.955C138.79 104.635 137.801 104.49 136.696 104.519L132.944 104.606C131.868 104.635 131.097 104.839 130.632 105.217C130.166 105.595 129.876 106.162 129.759 106.918C129.672 107.646 129.628 108.605 129.628 109.798V116.778L137.83 116.822L137.525 113.07H139.445V122.232H138.005Z" fill="#3F1E1F"/>
<path d="M158.819 134.23C157.045 134.23 155.445 133.794 154.02 132.921C152.595 132.019 151.46 130.74 150.617 129.082C149.802 127.424 149.395 125.475 149.395 123.235C149.395 120.85 149.875 118.742 150.835 116.909C151.795 115.077 153.118 113.637 154.805 112.59C156.521 111.543 158.455 111.019 160.608 111.019C161.567 111.019 162.513 111.15 163.443 111.412C164.403 111.645 165.16 111.921 165.712 112.241V106.264C165.712 105.799 165.712 105.362 165.712 104.955C165.741 104.519 165.785 104.01 165.843 103.428C165.32 103.457 164.796 103.486 164.272 103.515C163.778 103.544 163.269 103.574 162.745 103.603V101.77C164.025 101.77 165.014 101.712 165.712 101.596C166.41 101.479 166.934 101.334 167.283 101.159C167.661 100.985 167.952 100.796 168.155 100.592H169.421V128.907C169.421 129.373 169.406 129.838 169.377 130.303C169.348 130.769 169.304 131.292 169.246 131.874C169.77 131.845 170.279 131.816 170.773 131.787C171.297 131.758 171.82 131.728 172.344 131.699V133.532H166.105C165.959 132.746 165.858 131.99 165.799 131.263C164.985 132.165 163.982 132.892 162.789 133.445C161.597 133.968 160.273 134.23 158.819 134.23ZM160.389 132.092C161.349 132.092 162.309 131.816 163.269 131.263C164.258 130.71 165.072 130.027 165.712 129.213C165.683 128.864 165.669 128.5 165.669 128.122C165.669 127.715 165.669 127.278 165.669 126.813L165.712 114.248C165.014 113.724 164.243 113.346 163.4 113.114C162.585 112.852 161.742 112.721 160.869 112.721C159.415 112.721 158.15 113.143 157.074 113.986C155.998 114.83 155.183 116.008 154.631 117.52C154.078 119.033 153.831 120.807 153.889 122.843C153.947 124.617 154.223 126.202 154.718 127.598C155.241 128.994 155.968 130.1 156.899 130.914C157.859 131.699 159.022 132.092 160.389 132.092Z" fill="#3F1E1F"/>
<path d="M184.763 134.23C183.192 134.23 181.869 133.939 180.793 133.357C179.746 132.776 178.946 131.787 178.393 130.391C177.87 128.994 177.608 127.104 177.608 124.719V116.953C177.608 116.488 177.608 116.022 177.608 115.557C177.637 115.091 177.695 114.612 177.782 114.117C177.288 114.146 176.779 114.175 176.255 114.204C175.761 114.204 175.266 114.219 174.772 114.248V112.459H176.124C177.375 112.459 178.277 112.343 178.829 112.11C179.411 111.848 179.862 111.572 180.182 111.281H181.447V124.588C181.447 127.089 181.796 128.965 182.494 130.216C183.221 131.438 184.443 132.034 186.159 132.005C187.264 131.976 188.311 131.641 189.3 131.001C190.318 130.332 191.133 129.547 191.743 128.645V117.433C191.743 116.735 191.758 116.139 191.787 115.644C191.816 115.121 191.874 114.612 191.962 114.117C191.438 114.146 190.914 114.175 190.391 114.204C189.867 114.204 189.344 114.219 188.82 114.248V112.459H190.173C191.423 112.459 192.325 112.343 192.878 112.11C193.459 111.848 193.91 111.572 194.23 111.281H195.495L195.452 127.773C195.452 128.238 195.437 128.893 195.408 129.736C195.379 130.58 195.335 131.292 195.277 131.874C195.801 131.845 196.324 131.816 196.848 131.787C197.371 131.758 197.895 131.728 198.419 131.699V133.532H192.18C192.092 133.037 192.02 132.572 191.962 132.136C191.932 131.699 191.903 131.292 191.874 130.914C190.973 131.816 189.882 132.601 188.602 133.27C187.322 133.91 186.043 134.23 184.763 134.23Z" fill="#3F1E1F"/>
<path d="M212.235 134.23C210.286 134.23 208.483 133.794 206.825 132.921C205.196 132.019 203.887 130.74 202.898 129.082C201.939 127.395 201.459 125.373 201.459 123.017C201.459 121.505 201.735 120.036 202.288 118.611C202.84 117.186 203.611 115.906 204.6 114.772C205.618 113.608 206.825 112.692 208.221 112.023C209.617 111.354 211.159 111.019 212.846 111.019C214.474 111.019 215.885 111.267 217.078 111.761C218.299 112.256 219.244 112.91 219.913 113.724C220.582 114.539 220.917 115.426 220.917 116.386C220.917 117.026 220.742 117.578 220.393 118.044C220.044 118.48 219.535 118.698 218.866 118.698C218.139 118.727 217.616 118.509 217.296 118.044C217.005 117.549 216.859 117.113 216.859 116.735C216.859 116.444 216.903 116.153 216.99 115.862C217.078 115.542 217.252 115.251 217.514 114.99C217.281 114.292 216.874 113.783 216.292 113.463C215.711 113.114 215.1 112.895 214.46 112.808C213.849 112.692 213.34 112.634 212.933 112.634C210.955 112.634 209.283 113.434 207.916 115.033C206.578 116.604 205.909 118.902 205.909 121.927C205.909 123.875 206.214 125.606 206.825 127.118C207.465 128.631 208.352 129.823 209.486 130.696C210.621 131.539 211.929 131.961 213.413 131.961C214.78 131.961 216.089 131.598 217.339 130.87C218.59 130.143 219.564 129.256 220.262 128.209L221.397 129.082C220.641 130.303 219.724 131.292 218.648 132.048C217.601 132.805 216.51 133.357 215.376 133.706C214.271 134.055 213.224 134.23 212.235 134.23Z" fill="#3F1E1F"/>
<path d="M237.988 133.532C237.9 133.037 237.842 132.601 237.813 132.223C237.784 131.845 237.74 131.452 237.682 131.045C236.693 132.034 235.617 132.819 234.454 133.401C233.319 133.954 232.112 134.23 230.833 134.23C228.622 134.23 226.979 133.735 225.902 132.746C224.826 131.728 224.288 130.492 224.288 129.038C224.288 127.7 224.695 126.551 225.51 125.591C226.353 124.602 227.429 123.803 228.738 123.192C230.076 122.552 231.516 122.087 233.058 121.796C234.628 121.476 236.141 121.33 237.595 121.359V118.654C237.595 117.636 237.508 116.677 237.333 115.775C237.159 114.873 236.781 114.132 236.199 113.55C235.617 112.968 234.686 112.663 233.407 112.634C232.563 112.605 231.691 112.765 230.789 113.114C229.916 113.463 229.276 114.059 228.869 114.902C229.102 115.135 229.247 115.411 229.306 115.731C229.393 116.022 229.436 116.299 229.436 116.56C229.436 116.909 229.291 117.317 229 117.782C228.709 118.218 228.2 118.422 227.473 118.393C226.862 118.393 226.397 118.189 226.077 117.782C225.757 117.346 225.597 116.837 225.597 116.255C225.597 115.266 225.961 114.379 226.688 113.594C227.444 112.808 228.477 112.183 229.785 111.718C231.094 111.252 232.578 111.019 234.236 111.019C236.679 111.019 238.482 111.674 239.645 112.983C240.809 114.263 241.376 116.299 241.347 119.091C241.347 120.72 241.332 122.363 241.303 124.021C241.303 125.65 241.303 127.278 241.303 128.907C241.303 129.373 241.289 129.838 241.26 130.303C241.231 130.769 241.187 131.292 241.129 131.874C241.652 131.845 242.161 131.816 242.656 131.787C243.179 131.758 243.703 131.728 244.226 131.699V133.532H237.988ZM237.595 122.843C236.606 122.872 235.559 123.003 234.454 123.235C233.378 123.439 232.374 123.759 231.443 124.195C230.542 124.632 229.8 125.213 229.218 125.94C228.666 126.638 228.404 127.496 228.433 128.514C228.491 129.591 228.84 130.405 229.48 130.958C230.149 131.481 230.934 131.743 231.836 131.743C233.028 131.743 234.061 131.525 234.934 131.089C235.835 130.623 236.722 129.983 237.595 129.169C237.566 128.849 237.551 128.5 237.551 128.122C237.551 127.744 237.551 127.351 237.551 126.944C237.551 126.798 237.551 126.333 237.551 125.548C237.58 124.762 237.595 123.861 237.595 122.843Z" fill="#3F1E1F"/>
<path d="M255.124 134.23C254.455 134.23 253.772 134.128 253.074 133.924C252.376 133.75 251.721 133.386 251.111 132.834C250.529 132.281 250.063 131.481 249.714 130.434C249.365 129.358 249.191 127.947 249.191 126.202L249.278 113.55L245.919 113.594V111.718C246.675 111.688 247.446 111.412 248.231 110.889C249.016 110.336 249.714 109.594 250.325 108.664C250.965 107.733 251.401 106.715 251.634 105.61H253.117V111.718H260.447V113.419L253.117 113.506L253.03 125.635C253.03 127.613 253.277 129.125 253.772 130.172C254.295 131.219 255.153 131.743 256.346 131.743C257.16 131.743 257.917 131.51 258.615 131.045C259.342 130.58 259.982 129.94 260.534 129.125L261.712 130.085C260.869 131.365 260.025 132.296 259.182 132.877C258.367 133.459 257.611 133.823 256.913 133.968C256.215 134.143 255.619 134.23 255.124 134.23Z" fill="#3F1E1F"/>
<path d="M263.794 132.223C264.696 132.223 265.321 132.005 265.67 131.568C266.019 131.103 266.223 130.478 266.281 129.692C266.339 128.878 266.368 127.947 266.368 126.9V116.953C266.368 116.488 266.383 116.051 266.412 115.644C266.441 115.208 266.485 114.699 266.543 114.117C266.019 114.146 265.496 114.175 264.972 114.204C264.478 114.233 263.969 114.263 263.445 114.292V112.459C264.725 112.459 265.714 112.401 266.412 112.285C267.11 112.168 267.634 112.023 267.983 111.848C268.361 111.674 268.652 111.485 268.855 111.281H270.12V128.907C270.12 129.489 270.106 130.012 270.077 130.478C270.077 130.914 270.033 131.379 269.946 131.874C270.411 131.845 270.862 131.83 271.298 131.83C271.764 131.801 272.229 131.772 272.694 131.743V133.532H263.794V132.223ZM268.026 106.962C267.415 106.962 266.877 106.715 266.412 106.22C265.947 105.726 265.714 105.115 265.714 104.388C265.714 103.661 265.947 103.05 266.412 102.556C266.906 102.032 267.459 101.77 268.07 101.77C268.739 101.77 269.291 102.032 269.728 102.556C270.193 103.05 270.426 103.661 270.426 104.388C270.426 105.115 270.179 105.726 269.684 106.22C269.219 106.715 268.666 106.962 268.026 106.962Z" fill="#3F1E1F"/>
<path d="M286.885 134.23C284.849 134.23 283.002 133.764 281.344 132.834C279.686 131.874 278.363 130.565 277.374 128.907C276.414 127.22 275.934 125.301 275.934 123.148C275.934 120.85 276.414 118.785 277.374 116.953C278.333 115.121 279.642 113.681 281.3 112.634C282.958 111.558 284.82 111.019 286.885 111.019C288.921 111.019 290.768 111.514 292.425 112.503C294.083 113.463 295.407 114.772 296.396 116.429C297.385 118.087 297.879 119.978 297.879 122.101C297.879 124.341 297.385 126.391 296.396 128.253C295.436 130.085 294.127 131.539 292.469 132.616C290.811 133.692 288.95 134.23 286.885 134.23ZM287.234 132.485C288.775 132.485 289.997 132.048 290.898 131.176C291.8 130.303 292.44 129.169 292.818 127.773C293.225 126.377 293.429 124.908 293.429 123.366C293.429 122.057 293.298 120.778 293.036 119.527C292.804 118.247 292.425 117.098 291.902 116.08C291.378 115.033 290.695 114.204 289.851 113.594C289.037 112.983 288.048 112.677 286.885 112.677C285.372 112.677 284.136 113.114 283.176 113.986C282.216 114.859 281.504 115.993 281.038 117.389C280.602 118.785 280.384 120.283 280.384 121.883C280.384 123.686 280.631 125.402 281.126 127.031C281.62 128.631 282.376 129.94 283.394 130.958C284.412 131.976 285.692 132.485 287.234 132.485Z" fill="#3F1E1F"/>
<path d="M301.586 133.532V132.223C302.487 132.223 303.113 132.005 303.462 131.568C303.811 131.103 304.014 130.478 304.073 129.692C304.131 128.878 304.16 127.947 304.16 126.9L304.203 116.953C304.203 116.488 304.203 116.022 304.203 115.557C304.233 115.091 304.291 114.612 304.378 114.117C303.854 114.146 303.331 114.175 302.807 114.204C302.313 114.233 301.804 114.263 301.28 114.292V112.459C302.56 112.459 303.52 112.401 304.16 112.285C304.829 112.168 305.323 112.023 305.643 111.848C305.963 111.674 306.225 111.485 306.428 111.281H307.694C307.752 111.601 307.781 111.979 307.781 112.416C307.81 112.823 307.839 113.332 307.868 113.943C308.799 113.099 309.904 112.401 311.184 111.848C312.464 111.296 313.729 111.019 314.98 111.019C317.51 111.019 319.357 111.819 320.52 113.419C321.684 114.99 322.266 117.447 322.266 120.792V128.907C322.266 129.489 322.251 130.012 322.222 130.478C322.222 130.914 322.178 131.379 322.091 131.874C322.556 131.845 323.007 131.83 323.444 131.83C323.909 131.801 324.374 131.772 324.84 131.743V133.532H315.939V132.223C316.841 132.223 317.466 132.005 317.816 131.568C318.165 131.103 318.368 130.478 318.426 129.692C318.485 128.878 318.514 127.947 318.514 126.9V120.792C318.484 118.291 318.063 116.4 317.248 115.121C316.463 113.841 315.212 113.215 313.496 113.245C312.449 113.274 311.417 113.55 310.399 114.073C309.41 114.597 308.581 115.266 307.912 116.08C307.941 116.313 307.955 116.575 307.955 116.866C307.955 117.157 307.955 117.462 307.955 117.782L307.912 128.907C307.912 129.489 307.897 130.012 307.868 130.478C307.868 130.914 307.825 131.379 307.737 131.874C308.203 131.845 308.654 131.83 309.09 131.83C309.555 131.801 310.021 131.772 310.486 131.743V133.532H301.586Z" fill="#3F1E1F"/>
<path d="M10.2667 15.144C10.2667 9.82675 13.3362 7.78166 21.1123 7.78166C28.8883 7.78166 36.0505 14.1214 38.0968 23.1198H44.0312V2.46444H39.3246L36.6644 6.55461C32.1625 3.07796 26.6374 1.03288 20.9076 0.828369C10.8806 0.828369 0.444336 5.73658 0.444336 17.1891C0.444336 40.5031 37.2783 30.0731 37.2783 43.9797C37.2783 47.8654 33.7995 51.1375 26.6374 51.1375C14.9733 51.1375 8.22039 45.2068 6.9926 34.3678H0.853602V56.4547H6.3787L8.22039 51.751C13.1316 55.6367 19.0659 57.8863 25.4096 58.0908C36.869 58.0908 47.1007 53.7961 47.1007 40.9121C47.1007 18.2116 10.2667 27.21 10.2667 15.144Z" fill="#3F1E1F"/>
<path d="M55.6953 24.7559H62.4482V21.0747C62.4482 12.4853 67.3594 8.59968 77.591 8.59968V47.4563C77.591 49.5014 76.7725 50.3195 73.9076 50.3195H66.7455V56.2502H100.715V50.524H93.757C90.8922 50.524 90.0736 49.7059 90.0736 47.6608V8.39517C100.101 8.39517 105.216 12.2808 105.216 20.8702V24.5514H111.969V2.46442H55.6953V24.7559Z" fill="#3F1E1F"/>
<path d="M124.452 8.39517H128.135C132.433 8.39517 133.456 9.41771 133.456 12.8944V44.7977C133.456 49.7059 131.819 50.524 129.159 50.524H124.452V56.4547H178.884V33.5497H172.745C171.927 45.6158 169.062 50.3195 161.491 50.3195H144.915V31.5047H149.213C154.124 31.5047 156.375 33.9588 156.375 40.7075V42.7526H162.514V15.3485H156.375V16.371C156.375 22.9153 154.124 25.3694 149.213 25.3694H144.915V8.39517H159.444C170.494 8.39517 171.518 12.6899 172.745 23.9378H178.884V2.46442H124.452V8.39517Z" fill="#3F1E1F"/>
<path d="M192.595 24.7559H199.348V21.0747C199.348 12.4853 204.259 8.59968 214.491 8.59968V25.3694L208.965 27.619V28.846L214.491 31.3001V47.4563C214.491 49.5014 213.672 50.3195 210.807 50.3195H203.85V56.2502H237.819V50.524H230.861C227.996 50.524 227.178 49.7059 227.178 47.6608V31.5047L232.908 28.846V27.619L227.178 25.3694V8.39517C237.205 8.39517 242.321 12.2808 242.321 20.8702V24.5514H249.074V2.46442H192.595V24.7559Z" fill="#3F1E1F"/>
<path d="M269.946 15.144C269.946 9.82675 273.016 7.78166 280.792 7.78166C288.568 7.78166 295.73 14.1214 297.776 23.1198H303.711V2.46444H299.004L296.344 6.55461C291.842 3.07796 286.317 1.03288 280.587 0.828369C270.56 0.828369 260.124 5.73658 260.124 17.1891C260.124 40.5031 296.958 30.0731 296.958 43.9797C296.958 47.8654 293.479 51.1375 286.317 51.1375C274.653 51.1375 267.9 45.2068 266.672 34.3678H260.533V56.4547H266.058L267.9 51.751C272.811 55.6367 278.745 57.8863 284.884 58.0908C296.344 58.0908 306.576 53.7961 306.576 40.9121C306.576 18.2116 269.742 27.21 269.946 15.144Z" fill="#3F1E1F"/>
<path d="M346.888 51.751C333.587 51.751 329.904 41.1166 329.904 29.4596C329.904 17.8026 333.792 7.16814 346.683 7.16814C359.575 7.16814 363.463 17.8026 363.463 29.4596C363.463 41.1166 359.985 51.751 346.888 51.751ZM346.683 0.828369C328.88 0.828369 316.807 13.3034 316.807 29.4596C316.807 45.6158 328.676 58.0908 346.683 58.0908C364.691 58.0908 376.56 45.6158 376.56 29.4596C376.56 13.3034 364.487 0.828369 346.683 0.828369Z" fill="#3F1E1F"/>
<path d="M421.989 2.46442V8.59968H427.104C430.174 8.59968 431.402 10.0312 431.402 12.4853V41.3211H431.197L407.255 2.46442H382.904V8.59968H388.633C391.089 8.59968 392.112 9.41771 392.112 11.4628V47.2518C392.112 49.2969 391.294 50.524 388.633 50.524H382.904V56.4547H410.12V50.524H403.981C402.344 50.7285 400.707 49.5014 400.502 47.8653C400.502 47.6608 400.502 47.4563 400.502 47.2518V12.6899H400.707L427.718 56.4547H439.996V11.2583C439.996 9.62222 441.224 8.39517 444.089 8.39517H449V2.46442H421.989Z" fill="#3F1E1F"/>
<path fill-rule="evenodd" clip-rule="evenodd" d="M328.567 81.7229H120.423V78.7229H328.567V81.7229Z" fill="#3F1E1F"/>
</svg>
