<svg width="449" height="134" viewBox="0 0 449 134" fill="none" xmlns="http://www.w3.org/2000/svg">
<path d="M137.561 121.404C137.561 120.124 137.386 119.208 137.037 118.655C136.688 118.102 136.135 117.768 135.379 117.652C134.623 117.535 133.62 117.506 132.369 117.564L129.184 117.695V127.686C129.184 129.199 129.14 130.333 129.053 131.089L137.386 130.958C138.666 130.929 139.771 130.726 140.702 130.347C141.633 129.94 142.36 129.242 142.883 128.253C143.407 127.264 143.669 125.912 143.669 124.196H145.152L144.89 132.703H122.378V131.264C123.483 131.205 124.239 130.958 124.647 130.522C125.054 130.057 125.272 129.431 125.301 128.646C125.359 127.832 125.388 126.915 125.388 125.897V107.05C125.388 105.828 125.432 104.781 125.519 103.909C124.996 103.938 124.472 103.967 123.949 103.996C123.425 104.025 122.901 104.054 122.378 104.083V102.163H143.363L143.581 109.798H142.142C142.142 108.082 141.88 106.788 141.356 105.915C140.833 105.014 140.12 104.418 139.219 104.127C138.346 103.807 137.357 103.661 136.252 103.69L132.5 103.778C131.424 103.807 130.653 104.01 130.187 104.388C129.722 104.767 129.431 105.334 129.315 106.09C129.228 106.817 129.184 107.777 129.184 108.969V115.95L137.386 115.994L137.081 112.242H139V121.404H137.561Z" fill="#F3D6AA"/>
<path d="M158.375 133.401C156.6 133.401 155.001 132.965 153.575 132.093C152.15 131.191 151.016 129.911 150.172 128.253C149.358 126.595 148.951 124.647 148.951 122.407C148.951 120.022 149.431 117.913 150.391 116.081C151.35 114.249 152.674 112.809 154.361 111.762C156.077 110.715 158.011 110.191 160.163 110.191C161.123 110.191 162.068 110.322 162.999 110.584C163.959 110.816 164.715 111.093 165.268 111.413V105.436C165.268 104.97 165.268 104.534 165.268 104.127C165.297 103.69 165.341 103.181 165.399 102.6C164.875 102.629 164.352 102.658 163.828 102.687C163.334 102.716 162.825 102.745 162.301 102.774V100.942C163.581 100.942 164.57 100.884 165.268 100.767C165.966 100.651 166.489 100.506 166.838 100.331C167.217 100.157 167.507 99.9675 167.711 99.7639H168.976V128.079C168.976 128.544 168.962 129.01 168.933 129.475C168.904 129.94 168.86 130.464 168.802 131.046C169.325 131.016 169.834 130.987 170.329 130.958C170.852 130.929 171.376 130.9 171.899 130.871V132.703H165.66C165.515 131.918 165.413 131.162 165.355 130.435C164.541 131.336 163.537 132.064 162.345 132.616C161.152 133.14 159.829 133.401 158.375 133.401ZM159.945 131.264C160.905 131.264 161.865 130.987 162.825 130.435C163.814 129.882 164.628 129.199 165.268 128.384C165.239 128.035 165.224 127.672 165.224 127.293C165.224 126.886 165.224 126.45 165.224 125.985L165.268 113.42C164.57 112.896 163.799 112.518 162.956 112.285C162.141 112.023 161.298 111.893 160.425 111.893C158.971 111.893 157.706 112.314 156.629 113.158C155.553 114.001 154.739 115.179 154.186 116.692C153.634 118.204 153.386 119.978 153.445 122.014C153.503 123.789 153.779 125.374 154.273 126.77C154.797 128.166 155.524 129.271 156.455 130.086C157.415 130.871 158.578 131.264 159.945 131.264Z" fill="#F3D6AA"/>
<path d="M184.318 133.401C182.748 133.401 181.424 133.111 180.348 132.529C179.301 131.947 178.501 130.958 177.949 129.562C177.425 128.166 177.163 126.275 177.163 123.89V116.125C177.163 115.659 177.163 115.194 177.163 114.728C177.193 114.263 177.251 113.783 177.338 113.289C176.843 113.318 176.334 113.347 175.811 113.376C175.316 113.376 174.822 113.391 174.328 113.42V111.631H175.68C176.931 111.631 177.832 111.514 178.385 111.282C178.967 111.02 179.418 110.744 179.738 110.453H181.003V123.76C181.003 126.261 181.352 128.137 182.05 129.388C182.777 130.609 183.999 131.205 185.715 131.176C186.82 131.147 187.867 130.813 188.856 130.173C189.874 129.504 190.688 128.719 191.299 127.817V116.604C191.299 115.906 191.314 115.31 191.343 114.816C191.372 114.292 191.43 113.783 191.517 113.289C190.994 113.318 190.47 113.347 189.947 113.376C189.423 113.376 188.9 113.391 188.376 113.42V111.631H189.728C190.979 111.631 191.881 111.514 192.433 111.282C193.015 111.02 193.466 110.744 193.786 110.453H195.051L195.007 126.944C195.007 127.41 194.993 128.064 194.964 128.908C194.935 129.751 194.891 130.464 194.833 131.046C195.357 131.016 195.88 130.987 196.404 130.958C196.927 130.929 197.451 130.9 197.974 130.871V132.703H191.735C191.648 132.209 191.575 131.744 191.517 131.307C191.488 130.871 191.459 130.464 191.43 130.086C190.528 130.987 189.438 131.773 188.158 132.442C186.878 133.082 185.598 133.401 184.318 133.401Z" fill="#F3D6AA"/>
<path d="M211.79 133.401C209.842 133.401 208.038 132.965 206.381 132.093C204.752 131.191 203.443 129.911 202.454 128.253C201.494 126.566 201.014 124.545 201.014 122.189C201.014 120.676 201.291 119.208 201.843 117.782C202.396 116.357 203.167 115.077 204.156 113.943C205.174 112.78 206.381 111.864 207.777 111.195C209.173 110.526 210.714 110.191 212.401 110.191C214.03 110.191 215.441 110.438 216.633 110.933C217.855 111.427 218.8 112.082 219.469 112.896C220.138 113.71 220.473 114.598 220.473 115.557C220.473 116.197 220.298 116.75 219.949 117.215C219.6 117.652 219.091 117.87 218.422 117.87C217.695 117.899 217.171 117.681 216.851 117.215C216.561 116.721 216.415 116.285 216.415 115.906C216.415 115.616 216.459 115.325 216.546 115.034C216.633 114.714 216.808 114.423 217.07 114.161C216.837 113.463 216.43 112.954 215.848 112.634C215.266 112.285 214.655 112.067 214.016 111.98C213.405 111.864 212.896 111.805 212.489 111.805C210.511 111.805 208.838 112.605 207.471 114.205C206.133 115.776 205.464 118.073 205.464 121.098C205.464 123.047 205.77 124.778 206.381 126.29C207.02 127.802 207.908 128.995 209.042 129.868C210.176 130.711 211.485 131.133 212.968 131.133C214.336 131.133 215.644 130.769 216.895 130.042C218.146 129.315 219.12 128.428 219.818 127.381L220.952 128.253C220.196 129.475 219.28 130.464 218.204 131.22C217.157 131.976 216.066 132.529 214.932 132.878C213.826 133.227 212.779 133.401 211.79 133.401Z" fill="#F3D6AA"/>
<path d="M237.543 132.703C237.456 132.209 237.398 131.773 237.369 131.395C237.34 131.016 237.296 130.624 237.238 130.217C236.249 131.205 235.173 131.991 234.009 132.573C232.875 133.125 231.668 133.401 230.388 133.401C228.178 133.401 226.534 132.907 225.458 131.918C224.382 130.9 223.844 129.664 223.844 128.21C223.844 126.872 224.251 125.723 225.065 124.763C225.909 123.774 226.985 122.974 228.294 122.363C229.632 121.724 231.072 121.258 232.613 120.967C234.184 120.647 235.696 120.502 237.151 120.531V117.826C237.151 116.808 237.063 115.848 236.889 114.947C236.714 114.045 236.336 113.303 235.754 112.722C235.173 112.14 234.242 111.834 232.962 111.805C232.119 111.776 231.246 111.936 230.345 112.285C229.472 112.634 228.832 113.231 228.425 114.074C228.658 114.307 228.803 114.583 228.861 114.903C228.948 115.194 228.992 115.47 228.992 115.732C228.992 116.081 228.847 116.488 228.556 116.954C228.265 117.39 227.756 117.593 227.029 117.564C226.418 117.564 225.953 117.361 225.633 116.954C225.313 116.517 225.153 116.008 225.153 115.427C225.153 114.438 225.516 113.55 226.243 112.765C227 111.98 228.032 111.355 229.341 110.889C230.65 110.424 232.133 110.191 233.791 110.191C236.234 110.191 238.038 110.846 239.201 112.154C240.365 113.434 240.932 115.47 240.903 118.262C240.903 119.891 240.888 121.535 240.859 123.192C240.859 124.821 240.859 126.45 240.859 128.079C240.859 128.544 240.844 129.01 240.815 129.475C240.786 129.94 240.743 130.464 240.685 131.046C241.208 131.016 241.717 130.987 242.212 130.958C242.735 130.929 243.259 130.9 243.782 130.871V132.703H237.543ZM237.151 122.014C236.162 122.044 235.115 122.174 234.009 122.407C232.933 122.611 231.93 122.931 230.999 123.367C230.097 123.803 229.356 124.385 228.774 125.112C228.221 125.81 227.96 126.668 227.989 127.686C228.047 128.762 228.396 129.577 229.036 130.129C229.705 130.653 230.49 130.915 231.392 130.915C232.584 130.915 233.617 130.696 234.489 130.26C235.391 129.795 236.278 129.155 237.151 128.341C237.122 128.021 237.107 127.672 237.107 127.293C237.107 126.915 237.107 126.523 237.107 126.116C237.107 125.97 237.107 125.505 237.107 124.719C237.136 123.934 237.151 123.032 237.151 122.014Z" fill="#F3D6AA"/>
<path d="M254.68 133.401C254.011 133.401 253.328 133.3 252.63 133.096C251.931 132.922 251.277 132.558 250.666 132.005C250.085 131.453 249.619 130.653 249.27 129.606C248.921 128.53 248.747 127.119 248.747 125.374L248.834 112.722L245.474 112.765V110.889C246.231 110.86 247.001 110.584 247.787 110.06C248.572 109.508 249.27 108.766 249.881 107.835C250.521 106.904 250.957 105.886 251.19 104.781H252.673V110.889H260.003V112.591L252.673 112.678L252.586 124.807C252.586 126.784 252.833 128.297 253.328 129.344C253.851 130.391 254.709 130.915 255.902 130.915C256.716 130.915 257.472 130.682 258.17 130.217C258.897 129.751 259.537 129.111 260.09 128.297L261.268 129.257C260.424 130.537 259.581 131.467 258.738 132.049C257.923 132.631 257.167 132.994 256.469 133.14C255.771 133.314 255.175 133.401 254.68 133.401Z" fill="#F3D6AA"/>
<path d="M263.35 131.395C264.252 131.395 264.877 131.176 265.226 130.74C265.575 130.275 265.779 129.649 265.837 128.864C265.895 128.05 265.924 127.119 265.924 126.072V116.125C265.924 115.659 265.939 115.223 265.968 114.816C265.997 114.379 266.04 113.87 266.098 113.289C265.575 113.318 265.051 113.347 264.528 113.376C264.033 113.405 263.524 113.434 263.001 113.463V111.631C264.281 111.631 265.27 111.573 265.968 111.456C266.666 111.34 267.189 111.195 267.538 111.02C267.916 110.846 268.207 110.656 268.411 110.453H269.676V128.079C269.676 128.66 269.661 129.184 269.632 129.649C269.632 130.086 269.589 130.551 269.501 131.046C269.967 131.016 270.418 131.002 270.854 131.002C271.319 130.973 271.785 130.944 272.25 130.915V132.703H263.35V131.395ZM267.582 106.134C266.971 106.134 266.433 105.886 265.968 105.392C265.502 104.897 265.27 104.287 265.27 103.56C265.27 102.832 265.502 102.222 265.968 101.727C266.462 101.204 267.015 100.942 267.625 100.942C268.294 100.942 268.847 101.204 269.283 101.727C269.749 102.222 269.981 102.832 269.981 103.56C269.981 104.287 269.734 104.897 269.24 105.392C268.774 105.886 268.222 106.134 267.582 106.134Z" fill="#F3D6AA"/>
<path d="M286.44 133.401C284.404 133.401 282.557 132.936 280.899 132.005C279.242 131.046 277.918 129.737 276.929 128.079C275.969 126.392 275.49 124.472 275.49 122.32C275.49 120.022 275.969 117.957 276.929 116.125C277.889 114.292 279.198 112.852 280.856 111.805C282.514 110.729 284.375 110.191 286.44 110.191C288.476 110.191 290.323 110.686 291.981 111.674C293.639 112.634 294.962 113.943 295.951 115.601C296.94 117.259 297.435 119.149 297.435 121.273C297.435 123.512 296.94 125.563 295.951 127.424C294.991 129.257 293.683 130.711 292.025 131.787C290.367 132.863 288.505 133.401 286.44 133.401ZM286.789 131.656C288.331 131.656 289.552 131.22 290.454 130.347C291.356 129.475 291.996 128.341 292.374 126.944C292.781 125.548 292.985 124.079 292.985 122.538C292.985 121.229 292.854 119.949 292.592 118.699C292.359 117.419 291.981 116.27 291.458 115.252C290.934 114.205 290.25 113.376 289.407 112.765C288.593 112.154 287.604 111.849 286.44 111.849C284.928 111.849 283.692 112.285 282.732 113.158C281.772 114.03 281.059 115.165 280.594 116.561C280.158 117.957 279.94 119.455 279.94 121.055C279.94 122.858 280.187 124.574 280.681 126.203C281.176 127.802 281.932 129.111 282.95 130.129C283.968 131.147 285.248 131.656 286.789 131.656Z" fill="#F3D6AA"/>
<path d="M301.141 132.703V131.395C302.043 131.395 302.668 131.176 303.017 130.74C303.366 130.275 303.57 129.649 303.628 128.864C303.686 128.05 303.715 127.119 303.715 126.072L303.759 116.125C303.759 115.659 303.759 115.194 303.759 114.728C303.788 114.263 303.846 113.783 303.934 113.289C303.41 113.318 302.887 113.347 302.363 113.376C301.869 113.405 301.36 113.434 300.836 113.463V111.631C302.116 111.631 303.076 111.573 303.715 111.456C304.384 111.34 304.879 111.195 305.199 111.02C305.519 110.846 305.781 110.656 305.984 110.453H307.249C307.308 110.773 307.337 111.151 307.337 111.587C307.366 111.994 307.395 112.503 307.424 113.114C308.355 112.271 309.46 111.573 310.74 111.02C312.019 110.467 313.285 110.191 314.535 110.191C317.066 110.191 318.913 110.991 320.076 112.591C321.24 114.161 321.821 116.619 321.821 119.964V128.079C321.821 128.66 321.807 129.184 321.778 129.649C321.778 130.086 321.734 130.551 321.647 131.046C322.112 131.016 322.563 131.002 322.999 131.002C323.465 130.973 323.93 130.944 324.395 130.915V132.703H315.495V131.395C316.397 131.395 317.022 131.176 317.371 130.74C317.72 130.275 317.924 129.649 317.982 128.864C318.04 128.05 318.069 127.119 318.069 126.072V119.964C318.04 117.463 317.618 115.572 316.804 114.292C316.019 113.012 314.768 112.387 313.052 112.416C312.005 112.445 310.972 112.722 309.954 113.245C308.965 113.769 308.136 114.438 307.467 115.252C307.497 115.485 307.511 115.746 307.511 116.037C307.511 116.328 307.511 116.634 307.511 116.954L307.467 128.079C307.467 128.66 307.453 129.184 307.424 129.649C307.424 130.086 307.38 130.551 307.293 131.046C307.758 131.016 308.209 131.002 308.645 131.002C309.111 130.973 309.576 130.944 310.042 130.915V132.703H301.141Z" fill="#F3D6AA"/>
<path d="M9.82239 14.3156C9.82239 8.99838 12.8919 6.9533 20.6679 6.9533C28.444 6.9533 35.6062 13.2931 37.6525 22.2914H43.5868V1.63607H38.8803L36.2201 5.72624C31.7181 2.2496 26.193 0.204509 20.4633 0C10.4363 0 0 4.90821 0 16.3607C0 39.6747 36.834 29.2447 36.834 43.1513C36.834 47.037 33.3552 50.3091 26.193 50.3091C14.529 50.3091 7.77606 44.3784 6.54826 33.5394H0.409266V55.6264H5.93436L7.77606 50.9227C12.6873 54.8083 18.6216 57.0579 24.9652 57.2624C36.4247 57.2624 46.6563 52.9678 46.6563 40.0837C46.6563 17.3832 9.82239 26.3816 9.82239 14.3156Z" fill="#F3D6AA"/>
<path d="M55.2509 23.9275H62.0038V20.2463C62.0038 11.657 66.915 7.77131 77.1467 7.77131V46.628C77.1467 48.6731 76.3281 49.4911 73.4633 49.4911H66.3011V55.4218H100.27V49.6956H93.3127C90.4478 49.6956 89.6293 48.8776 89.6293 46.8325V7.5668C99.6563 7.5668 104.772 11.4525 104.772 20.0418V23.723H111.525V1.63605H55.2509V23.9275Z" fill="#F3D6AA"/>
<path d="M124.008 7.5668H127.691C131.988 7.5668 133.011 8.58935 133.011 12.066V43.9693C133.011 48.8776 131.374 49.6956 128.714 49.6956H124.008V55.6263H178.44V32.7214H172.301C171.482 44.7874 168.618 49.4911 161.046 49.4911H144.471V30.6763H148.768C153.679 30.6763 155.93 33.1304 155.93 39.8792V41.9243H162.069V14.5201H155.93V15.5426C155.93 22.0869 153.679 24.541 148.768 24.541H144.471V7.5668H159C170.05 7.5668 171.073 11.8615 172.301 23.1095H178.44V1.63605H124.008V7.5668Z" fill="#F3D6AA"/>
<path d="M192.15 23.9275H198.903V20.2463C198.903 11.657 203.815 7.77131 214.046 7.77131V24.541L208.521 26.7906V28.0177L214.046 30.4718V46.628C214.046 48.6731 213.228 49.4911 210.363 49.4911H203.405V55.4218H237.374V49.6956H230.417C227.552 49.6956 226.734 48.8776 226.734 46.8325V30.6763L232.463 28.0177V26.7906L226.734 24.541V7.5668C236.761 7.5668 241.876 11.4525 241.876 20.0418V23.723H248.629V1.63605H192.15V23.9275Z" fill="#F3D6AA"/>
<path d="M269.502 14.3156C269.502 8.99838 272.571 6.9533 280.347 6.9533C288.123 6.9533 295.286 13.2931 297.332 22.2914H303.266V1.63607H298.56L295.9 5.72624C291.398 2.2496 285.872 0.204509 280.143 0C270.116 0 259.679 4.90821 259.679 16.3607C259.679 39.6747 296.513 29.2447 296.513 43.1513C296.513 47.037 293.035 50.3091 285.872 50.3091C274.208 50.3091 267.455 44.3784 266.228 33.5394H260.089V55.6264H265.614L267.455 50.9227C272.367 54.8083 278.301 57.0579 284.44 57.2624C295.899 57.2624 306.131 52.9678 306.131 40.0837C306.131 17.3832 269.297 26.3816 269.502 14.3156Z" fill="#F3D6AA"/>
<path d="M346.444 50.9227C333.143 50.9227 329.459 40.2882 329.459 28.6312C329.459 16.9742 333.347 6.33977 346.239 6.33977C359.131 6.33977 363.019 16.9742 363.019 28.6312C363.019 40.2882 359.54 50.9227 346.444 50.9227ZM346.239 0C328.436 0 316.363 12.475 316.363 28.6312C316.363 44.7874 328.231 57.2624 346.239 57.2624C364.247 57.2624 376.116 44.7874 376.116 28.6312C376.116 12.475 364.042 0 346.239 0Z" fill="#F3D6AA"/>
<path d="M421.544 1.63605V7.77131H426.66C429.73 7.77131 430.957 9.20287 430.957 11.657V40.4927H430.753L406.811 1.63605H382.459V7.77131H388.189C390.645 7.77131 391.668 8.58934 391.668 10.6344V46.4235C391.668 48.4685 390.849 49.6956 388.189 49.6956H382.459V55.6263H409.675V49.6956H403.536C401.899 49.9001 400.262 48.673 400.058 47.037C400.058 46.8325 400.058 46.628 400.058 46.4235V11.8615H400.262L427.274 55.6263H439.552V10.4299C439.552 8.79385 440.78 7.5668 443.645 7.5668H448.556V1.63605H421.544Z" fill="#F3D6AA"/>
<path fill-rule="evenodd" clip-rule="evenodd" d="M328.123 80.8945H119.978V77.8945H328.123V80.8945Z" fill="#F3D6AA"/>
</svg>
