<svg width="202" height="26" viewBox="0 0 202 26" fill="none" xmlns="http://www.w3.org/2000/svg">
<path d="M4.42336 6.5C4.42336 4.08571 5.80566 3.15714 9.30748 3.15714C12.8093 3.15714 16.0347 6.03571 16.9562 10.1214H19.6286V0.742857H17.5091L16.3111 2.6C14.2838 1.02143 11.7956 0.0928571 9.21533 0C4.69982 0 0 2.22857 0 7.42857C0 18.0143 16.5876 13.2786 16.5876 19.5929C16.5876 21.3571 15.021 22.8429 11.7956 22.8429C6.54288 22.8429 3.50182 20.15 2.9489 15.2286H0.184307V25.2571H2.67245L3.50182 23.1214C5.7135 24.8857 8.38595 25.9071 11.2427 26C16.4033 26 21.0109 24.05 21.0109 18.2C21.0109 7.89286 4.42336 11.9786 4.42336 6.5Z" fill="#F3D6AA"/>
<path d="M24.8814 10.8643H27.9224V9.19285C27.9224 5.29285 30.1341 3.52856 34.7418 3.52856V21.1714C34.7418 22.1 34.3732 22.4714 33.083 22.4714H29.8577V25.1643H45.1551V22.5643H42.0219C40.7317 22.5643 40.3631 22.1928 40.3631 21.2643V3.43571C44.8786 3.43571 47.1825 5.19999 47.1825 9.09999V10.7714H50.2235V0.742848H24.8814V10.8643Z" fill="#F3D6AA"/>
<path d="M55.8449 3.43571H57.5036C59.4389 3.43571 59.8996 3.89999 59.8996 5.47856V19.9643C59.8996 22.1928 59.1624 22.5643 57.9644 22.5643H55.8449V25.2571H80.3576V14.8571H77.593C77.2244 20.3357 75.9343 22.4714 72.5246 22.4714H65.0602V13.9286H66.9954C69.2071 13.9286 70.2208 15.0428 70.2208 18.1071V19.0357H72.9854V6.59285H70.2208V7.05713C70.2208 10.0286 69.2071 11.1428 66.9954 11.1428H65.0602V3.43571H71.6031C76.5794 3.43571 77.0401 5.38571 77.593 10.4928H80.3576V0.742848H55.8449V3.43571Z" fill="#F3D6AA"/>
<path d="M86.5319 10.8643H89.573V9.19285C89.573 5.29285 91.7847 3.52856 96.3923 3.52856V11.1428L93.9042 12.1643V12.7214L96.3923 13.8357V21.1714C96.3923 22.1 96.0237 22.4714 94.7336 22.4714H91.6004V25.1643H106.898V22.5643H103.765C102.474 22.5643 102.106 22.1928 102.106 21.2643V13.9286L104.686 12.7214V12.1643L102.106 11.1428V3.43571C106.621 3.43571 108.925 5.19999 108.925 9.09999V10.7714H111.966V0.742848H86.5319V10.8643Z" fill="#F3D6AA"/>
<path d="M121.366 6.5C121.366 4.08571 122.748 3.15714 126.25 3.15714C129.752 3.15714 132.977 6.03571 133.899 10.1214H136.571V0.742857H134.452L133.254 2.6C131.226 1.02143 128.738 0.0928571 126.158 0C121.642 0 116.943 2.22857 116.943 7.42857C116.943 18.0143 133.53 13.2786 133.53 19.5929C133.53 21.3571 131.964 22.8429 128.738 22.8429C123.485 22.8429 120.444 20.15 119.891 15.2286H117.127V25.2571H119.615L120.444 23.1214C122.656 24.8857 125.328 25.9071 128.093 26C133.254 26 137.861 24.05 137.861 18.2C137.861 7.89286 121.274 11.9786 121.366 6.5Z" fill="#F3D6AA"/>
<path d="M156.015 23.1214C150.026 23.1214 148.367 18.2929 148.367 13C148.367 7.70714 150.118 2.87857 155.923 2.87857C161.729 2.87857 163.48 7.70714 163.48 13C163.48 18.2929 161.913 23.1214 156.015 23.1214ZM155.923 0C147.906 0 142.469 5.66429 142.469 13C142.469 20.3357 147.814 26 155.923 26C164.033 26 169.378 20.3357 169.378 13C169.378 5.66429 163.941 0 155.923 0Z" fill="#F3D6AA"/>
<path d="M189.836 0.742848V3.52856H192.14C193.522 3.52856 194.075 4.17856 194.075 5.29285V18.3857H193.983L183.201 0.742848H172.234V3.52856H174.815C175.921 3.52856 176.381 3.89999 176.381 4.82856V21.0786C176.381 22.0071 176.013 22.5643 174.815 22.5643H172.234V25.2571H184.491V22.5643H181.726C180.989 22.6571 180.252 22.1 180.16 21.3571C180.16 21.2643 180.16 21.1714 180.16 21.0786V5.38571H180.252L192.416 25.2571H197.945V4.73571C197.945 3.99285 198.498 3.43571 199.788 3.43571H202V0.742848H189.836Z" fill="#F3D6AA"/>
</svg>
