<svg width="30" height="30" viewBox="0 0 30 30" fill="none" xmlns="http://www.w3.org/2000/svg">
<path fill-rule="evenodd" clip-rule="evenodd" d="M0 14.625C0 18.5038 1.54084 22.2237 4.28356 24.9664C7.02628 27.7092 10.7462 29.25 14.625 29.25C18.5038 29.25 22.2237 27.7092 24.9664 24.9664C27.7092 22.2237 29.25 18.5038 29.25 14.625C29.25 10.7462 27.7092 7.02628 24.9664 4.28356C22.2237 1.54084 18.5038 0 14.625 0C10.7462 0 7.02628 1.54084 4.28356 4.28356C1.54084 7.02628 0 10.7462 0 14.625V14.625ZM26.7429 14.625C26.7429 17.8389 25.4662 20.9211 23.1936 23.1936C20.9211 25.4662 17.8389 26.7429 14.625 26.7429C11.4111 26.7429 8.32892 25.4662 6.05638 23.1936C3.78384 20.9211 2.50714 17.8389 2.50714 14.625C2.50714 11.4111 3.78384 8.32892 6.05638 6.05638C8.32892 3.78384 11.4111 2.50714 14.625 2.50714C17.8389 2.50714 20.9211 3.78384 23.1936 6.05638C25.4662 8.32892 26.7429 11.4111 26.7429 14.625V14.625Z" fill="#3F1E1F"/>
<path fill-rule="evenodd" clip-rule="evenodd" d="M8.35718 14.6251C8.35718 22.1833 10.8493 28.4144 14.625 28.4144C18.4008 28.4144 20.8929 22.1833 20.8929 14.6251C20.8929 7.0669 18.4008 0.835815 14.625 0.835815C10.8493 0.835815 8.35718 7.0669 8.35718 14.6251ZM18.3857 14.6251C18.3857 20.913 16.3884 25.9072 14.625 25.9072C12.8617 25.9072 10.8643 20.913 10.8643 14.6251C10.8643 8.33719 12.8617 3.34296 14.625 3.34296C16.3884 3.34296 18.3857 8.33719 18.3857 14.6251Z" fill="#3F1E1F"/>
<path d="M3.93115 7.04845L5.61261 5.18982C5.77975 5.34025 5.96194 5.49068 6.15582 5.63609C8.28021 7.22729 11.6715 8.21009 15.3738 8.21009C18.5344 8.21009 21.4778 7.49639 23.6156 6.27458C24.1304 5.98041 24.5883 5.66116 24.9845 5.32186L26.6124 7.22896C26.0943 7.67189 25.5076 8.08139 24.8608 8.4491C22.3269 9.8999 18.954 10.7156 15.3738 10.7156C11.1584 10.7156 7.24225 9.58233 4.65154 7.64181C4.40242 7.45519 4.16204 7.25719 3.93115 7.04845V7.04845Z" fill="#3F1E1F"/>
<path d="M3.93115 22.2283L5.61261 24.0869C5.77975 23.9348 5.96194 23.786 6.15582 23.6406C8.28021 22.0494 11.6715 21.0666 15.3738 21.0666C18.5344 21.0666 21.4778 21.7803 23.6156 23.0021C24.1304 23.2963 24.5883 23.6156 24.9845 23.9549L26.6124 22.0478C26.0679 21.5873 25.4814 21.1788 24.8608 20.8276C22.3269 19.3768 18.954 18.5612 15.3738 18.5612C11.1584 18.5612 7.24225 19.6944 4.65154 21.6349C4.40242 21.8215 4.16204 22.0195 3.93115 22.2283V22.2283Z" fill="#3F1E1F"/>
<path d="M0.835449 15.8785V13.3713H28.414V15.8785H0.835449Z" fill="#3F1E1F"/>
</svg>
