<svg width="39" height="39" viewBox="0 0 39 39" fill="none" xmlns="http://www.w3.org/2000/svg">
<path fill-rule="evenodd" clip-rule="evenodd" d="M0 19.375C0 24.5136 2.04129 29.4417 5.67481 33.0752C9.30832 36.7087 14.2364 38.75 19.375 38.75C24.5136 38.75 29.4417 36.7087 33.0752 33.0752C36.7087 29.4417 38.75 24.5136 38.75 19.375C38.75 14.2364 36.7087 9.30832 33.0752 5.67481C29.4417 2.04129 24.5136 0 19.375 0C14.2364 0 9.30832 2.04129 5.67481 5.67481C2.04129 9.30832 0 14.2364 0 19.375ZM35.4286 19.375C35.4286 23.6327 33.7372 27.716 30.7266 30.7266C27.716 33.7372 23.6327 35.4286 19.375 35.4286C15.1173 35.4286 11.034 33.7372 8.02341 30.7266C5.01278 27.716 3.32143 23.6327 3.32143 19.375C3.32143 15.1173 5.01278 11.034 8.02341 8.02341C11.034 5.01278 15.1173 3.32143 19.375 3.32143C23.6327 3.32143 27.716 5.01278 30.7266 8.02341C33.7372 11.034 35.4286 15.1173 35.4286 19.375Z" fill="#3C3737"/>
<path fill-rule="evenodd" clip-rule="evenodd" d="M11.0715 19.3751C11.0715 29.3881 14.373 37.643 19.3751 37.643C24.3772 37.643 27.6787 29.3881 27.6787 19.3751C27.6787 9.36211 24.3772 1.10725 19.3751 1.10725C14.373 1.10725 11.0715 9.36211 11.0715 19.3751ZM24.3572 19.3751C24.3572 27.7053 21.7112 34.3215 19.3751 34.3215C17.039 34.3215 14.393 27.7053 14.393 19.3751C14.393 11.045 17.039 4.42868 19.3751 4.42868C21.7112 4.42868 24.3572 11.045 24.3572 19.3751Z" fill="#3C3737"/>
<path d="M5.20801 9.33764L7.43558 6.87535C7.65701 7.07464 7.89837 7.27392 8.15522 7.46657C10.9696 9.57457 15.4624 10.8766 20.367 10.8766C24.5542 10.8766 28.4536 9.93107 31.2856 8.31242C31.9676 7.92271 32.5744 7.49978 33.0991 7.05028L35.2559 9.57678C34.5694 10.1636 33.7922 10.7061 32.9353 11.1932C29.5784 13.1152 25.11 14.1958 20.367 14.1958C14.7826 14.1958 9.59451 12.6945 6.16236 10.1237C5.83234 9.87648 5.51389 9.61418 5.20801 9.33764Z" fill="#3C3737"/>
<path d="M5.20801 29.4477L7.43558 31.91C7.65701 31.7085 7.89837 31.5115 8.15522 31.3188C10.9696 29.2108 15.4624 27.9088 20.367 27.9088C24.5542 27.9088 28.4536 28.8543 31.2856 30.473C31.9676 30.8627 32.5744 31.2856 33.0991 31.7351L35.2559 29.2086C34.5344 28.5986 33.7575 28.0574 32.9353 27.5922C29.5784 25.6702 25.11 24.5896 20.367 24.5896C14.7826 24.5896 9.59451 26.0909 6.16236 28.6617C5.83234 28.9089 5.51388 29.1712 5.20801 29.4477Z" fill="#3C3737"/>
<path d="M1.10693 21.0357V17.7142H37.6426V21.0357H1.10693Z" fill="#3C3737"/>
</svg>
