<svg width="168" height="72" viewBox="0 0 168 72" fill="none" xmlns="http://www.w3.org/2000/svg">
<path d="M168 0H0V72H168V0Z" fill="#0E1116"/>
<path d="M50.7183 50.8678L50.6922 50.8826C48.5043 52.1336 46.0901 52.7903 43.6487 52.8802L43.6158 52.8816C40.4655 53.0323 37.3944 52.3106 34.7408 50.6796L34.7198 50.6668C29.0149 47.2244 25.978 40.2826 27.3115 33.6208L27.3151 33.6026C28.4746 27.6183 33.1767 22.7592 38.9209 21.2841C36.9377 26.8853 37.8884 33.5848 41.8402 38.2414C45.6166 42.7042 51.3185 44.858 57.0055 44.1946C55.5391 47.0509 53.4156 49.3611 50.7183 50.8678Z" fill="#EBEBEB"/>
<path fill-rule="evenodd" clip-rule="evenodd" d="M39.7054 20.5664L39.3922 21.451C37.4634 26.8987 38.3944 33.4083 42.2214 37.9179C45.8869 42.2495 51.4227 44.3424 56.9475 43.6979L57.8782 43.5894L57.4503 44.4229C55.9441 47.3568 53.7551 49.7439 50.9631 51.3038L50.9621 51.3043L50.9404 51.3166L50.9393 51.3173C48.6791 52.6094 46.1863 53.287 43.6678 53.3799V53.3799L43.6397 53.381L43.638 53.3811C40.3965 53.5359 37.2254 52.7933 34.4801 51.1062L34.479 51.1056L34.4615 51.0949C28.573 47.5417 25.4472 40.388 26.8211 33.5232V33.5232L26.8242 33.5075C28.021 27.3304 32.8683 22.3222 38.7965 20.7998L39.7054 20.5664ZM38.1549 22.0276C33.0036 23.7073 28.8676 28.2184 27.8059 33.6977L27.8055 33.6998L27.8019 33.718C26.5091 40.1766 29.4568 46.9071 34.9782 50.2387L34.9797 50.2397L35.0027 50.2536C37.5637 51.8278 40.5338 52.5285 43.5919 52.3822L43.5948 52.382L43.6277 52.3807L43.6303 52.3806C45.9941 52.2935 48.3289 51.6579 50.444 50.4485L50.446 50.4474L50.4721 50.4326L50.4745 50.4313C52.8187 49.1219 54.7209 47.1798 56.1178 44.7763C50.5875 45.1278 45.1364 42.9107 41.4585 38.5644C37.5952 34.0117 36.522 27.5855 38.1549 22.0276Z" fill="#EBEBEB"/>
<path d="M139.092 36.0011C139.092 43.231 133.231 49.092 126.001 49.092C118.771 49.092 112.91 43.231 112.91 36.0011C112.91 28.7712 118.771 22.9102 126.001 22.9102C133.231 22.9102 139.092 28.7712 139.092 36.0011Z" fill="#EBEBEB"/>
<path d="M124.365 19.6364C124.365 18.7326 125.098 18 126.001 18C126.905 18 127.638 18.7326 127.638 19.6364V26.1818C127.638 27.0856 126.905 27.8182 126.001 27.8182C125.098 27.8182 124.365 27.0856 124.365 26.1818V19.6364Z" fill="#EBEBEB"/>
<path d="M109.636 37.6351C108.733 37.6351 108 36.9024 108 35.9987C108 35.095 108.733 34.3623 109.636 34.3623H116.182C117.086 34.3623 117.818 35.095 117.818 35.9987C117.818 36.9024 117.086 37.6351 116.182 37.6351H109.636Z" fill="#EBEBEB"/>
<path d="M135.816 37.6351C134.912 37.6351 134.18 36.9024 134.18 35.9987C134.18 35.095 134.912 34.3623 135.816 34.3623H142.362C143.265 34.3623 143.998 35.095 143.998 35.9987C143.998 36.9024 143.265 37.6351 142.362 37.6351H135.816Z" fill="#EBEBEB"/>
<path d="M112.428 24.7427C111.789 24.1036 111.789 23.0675 112.428 22.4285C113.067 21.7895 114.104 21.7895 114.743 22.4285L119.371 27.0568C120.01 27.6959 120.01 28.7319 119.371 29.371C118.732 30.01 117.696 30.01 117.057 29.371L112.428 24.7427Z" fill="#EBEBEB"/>
<path d="M140.646 24.7427C141.285 24.1036 141.285 23.0675 140.646 22.4285C140.007 21.7895 138.971 21.7895 138.332 22.4285L133.704 27.0568C133.065 27.6959 133.065 28.7319 133.704 29.371C134.343 30.01 135.378 30.01 136.018 29.371L140.646 24.7427Z" fill="#EBEBEB"/>
<path d="M112.428 46.6945C111.789 47.3336 111.789 48.3697 112.428 49.0087C113.067 49.6477 114.104 49.6477 114.743 49.0087L119.371 44.3803C120.01 43.7413 120.01 42.7053 119.371 42.0662C118.732 41.4271 117.696 41.4271 117.057 42.0662L112.428 46.6945Z" fill="#EBEBEB"/>
<path d="M140.646 46.6945C141.285 47.3336 141.285 48.3697 140.646 49.0087C140.007 49.6477 138.971 49.6477 138.332 49.0087L133.704 44.3803C133.065 43.7413 133.065 42.7053 133.704 42.0662C134.343 41.4271 135.378 41.4271 136.018 42.0662L140.646 46.6945Z" fill="#EBEBEB"/>
<path d="M124.365 45.8189C124.365 44.9152 125.098 44.1826 126.001 44.1826C126.905 44.1826 127.638 44.9152 127.638 45.8189V52.3644C127.638 53.2682 126.905 54.0008 126.001 54.0008C125.098 54.0008 124.365 53.2682 124.365 52.3644V45.8189Z" fill="#EBEBEB"/>
</svg>
