<svg width="48" height="35" viewBox="0 0 48 35" fill="none" xmlns="http://www.w3.org/2000/svg">
<path d="M47.25 16.9858C47.25 16.8697 47.25 16.7379 47.2447 16.585C47.2395 16.1578 47.2289 15.6779 47.2184 15.1664C47.1762 13.6951 47.1023 12.2291 46.9863 10.8475C46.8281 8.94376 46.5961 7.35645 46.2797 6.16465C45.9458 4.92091 45.2913 3.78659 44.3816 2.87506C43.4719 1.96354 42.339 1.30674 41.0959 0.970313C39.6035 0.569531 36.682 0.32168 32.5687 0.16875C30.6123 0.0949218 28.5187 0.0474607 26.4252 0.0210934C25.6922 0.0105466 25.0119 0.00527344 24.4002 0H22.8498C22.2381 0.00527344 21.5578 0.0105466 20.8248 0.0210934C18.7312 0.0474607 16.6377 0.0949218 14.6812 0.16875C10.568 0.326953 7.64121 0.574805 6.1541 0.970313C4.91063 1.30591 3.7772 1.96243 2.8674 2.87409C1.9576 3.78574 1.30338 4.9205 0.970313 6.16465C0.648633 7.35645 0.421875 8.94376 0.263672 10.8475C0.147656 12.2291 0.073828 13.6951 0.0316405 15.1664C0.0158202 15.6779 0.0105468 16.1578 0.00527336 16.585C0.00527336 16.7379 0 16.8697 0 16.9858V17.2811C0 17.3971 -8.05594e-08 17.5289 0.00527336 17.6819C0.0105468 18.109 0.0210937 18.5889 0.0316405 19.1004C0.073828 20.5717 0.147656 22.0377 0.263672 23.4194C0.421875 25.3231 0.653906 26.9104 0.970313 28.1022C1.64531 30.6282 3.62812 32.6215 6.1541 33.2965C7.64121 33.6973 10.568 33.9451 14.6812 34.0981C16.6377 34.1719 18.7312 34.2194 20.8248 34.2457C21.5578 34.2563 22.2381 34.2616 22.8498 34.2668H24.4002C25.0119 34.2616 25.6922 34.2563 26.4252 34.2457C28.5187 34.2194 30.6123 34.1719 32.5687 34.0981C36.682 33.9399 39.6088 33.692 41.0959 33.2965C43.6219 32.6215 45.6047 30.6334 46.2797 28.1022C46.6014 26.9104 46.8281 25.3231 46.9863 23.4194C47.1023 22.0377 47.1762 20.5717 47.2184 19.1004C47.2342 18.5889 47.2395 18.109 47.2447 17.6819C47.2447 17.5289 47.25 17.3971 47.25 17.2811V16.9858V16.9858ZM43.4531 17.26C43.4531 17.3707 43.4531 17.492 43.4479 17.6344C43.4426 18.0457 43.432 18.4992 43.4215 18.9897C43.3846 20.3924 43.3107 21.7951 43.2 23.0977C43.0576 24.7957 42.8572 26.1879 42.6094 27.1213C42.2824 28.3395 41.3227 29.3045 40.1098 29.6262C39.0023 29.9215 36.2127 30.1588 32.4211 30.3012C30.5016 30.375 28.4344 30.4225 26.3725 30.4489C25.65 30.4594 24.9803 30.4647 24.3791 30.4647H22.8709L20.8775 30.4489C18.8156 30.4225 16.7537 30.375 14.8289 30.3012C11.0373 30.1535 8.24238 29.9215 7.14023 29.6262C5.92734 29.2992 4.96758 28.3395 4.64062 27.1213C4.39277 26.1879 4.19238 24.7957 4.05 23.0977C3.93926 21.7951 3.8707 20.3924 3.82852 18.9897C3.8127 18.4992 3.80742 18.0404 3.80215 17.6344C3.80215 17.492 3.79688 17.3654 3.79688 17.26V17.0069C3.79688 16.8961 3.79688 16.7748 3.80215 16.6324C3.80742 16.2211 3.81797 15.7676 3.82852 15.2772C3.86543 13.8744 3.93926 12.4717 4.05 11.1692C4.19238 9.4711 4.39277 8.07891 4.64062 7.14551C4.96758 5.92735 5.92734 4.96231 7.14023 4.64063C8.24766 4.34532 11.0373 4.10801 14.8289 3.96563C16.7484 3.8918 18.8156 3.84434 20.8775 3.81797C21.6 3.80743 22.2697 3.80215 22.8709 3.80215H24.3791L26.3725 3.81797C28.4344 3.84434 30.4963 3.8918 32.4211 3.96563C36.2127 4.11328 39.0076 4.34532 40.1098 4.64063C41.3227 4.96758 42.2824 5.92735 42.6094 7.14551C42.8572 8.07891 43.0576 9.4711 43.2 11.1692C43.3107 12.4717 43.3793 13.8744 43.4215 15.2772C43.4373 15.7676 43.4426 16.2264 43.4479 16.6324C43.4479 16.7748 43.4531 16.9014 43.4531 17.0069V17.26ZM18.9316 24.1998L31.166 17.0807L18.9316 10.067V24.1998Z" fill="#3F1E1F"/>
</svg>
